<?xml version="1.0" encoding="UTF-8" standalone="no"?><!DOCTYPE svg PUBLIC "-//W3C//DTD SVG 1.1//EN" "http://www.w3.org/Graphics/SVG/1.1/DTD/svg11.dtd"><svg width="100%" height="100%" viewBox="0 0 406 103" version="1.1" xmlns="http://www.w3.org/2000/svg" xmlns:xlink="http://www.w3.org/1999/xlink" xml:space="preserve" xmlns:serif="http://www.serif.com/" style="fill-rule:evenodd;clip-rule:evenodd;stroke-linecap:square;stroke-linejoin:round;stroke-miterlimit:1.5;"><ellipse cx="50.693" cy="51.007" rx="47.6" ry="47.913" style="fill:#fff;stroke:#00d7b6;stroke-width:4.37px;"/><path d="M23.363,32.309l0,31.163c0,0 0,15.585 17.266,15.581" style="fill:none;stroke:url(#_Radial1);stroke-width:4.37px;stroke-linecap:round;"/><path d="M58.074,51.007l0,18.697c0,0 0,3.211 -3.509,5.869c-2.48,1.878 -6.713,3.481 -13.936,3.48" style="fill:none;stroke:url(#_Radial2);stroke-width:4.37px;stroke-linecap:round;"/><path d="M42.06,51.007l0,18.697c0,0 0.001,9.351 17.267,9.349" style="fill:none;stroke:#fff;stroke-width:6.25px;stroke-linecap:round;"/><path d="M42.06,51.007l0,18.697c0,0 0.001,9.351 17.267,9.349" style="fill:none;stroke:url(#_Radial3);stroke-width:4.37px;stroke-linecap:round;"/><path d="M76.772,32.309l0,31.163c0,0 -0.001,15.585 -17.445,15.581" style="fill:none;stroke:url(#_Radial4);stroke-width:4.37px;stroke-linecap:round;"/><g><g><path d="M171.721,31.871c0.688,0 1.217,0.211 1.587,0.634c0.37,0.423 0.555,0.952 0.555,1.587c0,0.37 -0.079,0.767 -0.238,1.19l-12.772,38.474c-0.158,0.476 -0.436,0.847 -0.833,1.111c-0.396,0.264 -0.886,0.397 -1.467,0.397c-0.529,0 -1.005,-0.133 -1.428,-0.397c-0.423,-0.264 -0.688,-0.635 -0.793,-1.111l-10.789,-33.556l-10.472,33.556c-0.37,1.005 -1.11,1.508 -2.221,1.508c-0.529,0 -0.992,-0.133 -1.388,-0.397c-0.397,-0.264 -0.675,-0.635 -0.833,-1.111l-12.852,-38.474c-0.105,-0.635 -0.158,-1.058 -0.158,-1.27c0,-1.428 0.661,-2.141 1.983,-2.141c0.476,0 0.912,0.119 1.309,0.357c0.397,0.237 0.701,0.594 0.912,1.07l11.186,33.795l10.312,-33.319c0.159,-0.581 0.45,-1.044 0.873,-1.388c0.423,-0.344 0.926,-0.515 1.507,-0.515c1.164,0 1.957,0.634 2.38,1.903l10.392,32.684l11.027,-33.16c0.423,-0.951 1.164,-1.427 2.221,-1.427Z" style="fill:#444;fill-rule:nonzero;"/><path d="M198.203,31.474c3.861,0 7.312,0.912 10.352,2.737c3.041,1.824 5.408,4.35 7.1,7.576c1.693,3.226 2.539,6.901 2.539,11.026c0,0.688 -0.212,1.23 -0.635,1.627c-0.423,0.396 -0.978,0.595 -1.666,0.595l-33.239,0c0.159,3.12 0.979,5.91 2.46,8.369c1.48,2.459 3.464,4.376 5.949,5.751c2.486,1.375 5.263,2.063 8.33,2.063c2.062,0 4.138,-0.357 6.227,-1.071c2.089,-0.714 3.742,-1.653 4.958,-2.816c0.529,-0.423 1.085,-0.635 1.666,-0.635c0.582,0 1.058,0.159 1.428,0.476c0.582,0.476 0.873,1.031 0.873,1.666c0,0.529 -0.238,1.031 -0.714,1.507c-1.692,1.534 -3.9,2.803 -6.624,3.808c-2.724,1.005 -5.328,1.507 -7.814,1.507c-4.178,0 -7.893,-0.938 -11.146,-2.816c-3.252,-1.877 -5.804,-4.495 -7.655,-7.853c-1.851,-3.359 -2.777,-7.153 -2.777,-11.384c0,-4.284 0.86,-8.105 2.579,-11.463c1.718,-3.359 4.125,-5.976 7.219,-7.854c3.093,-1.877 6.624,-2.816 10.59,-2.816Zm0,4.442c-4.125,0 -7.602,1.375 -10.432,4.125c-2.829,2.751 -4.508,6.373 -5.037,10.869l30.859,0c-0.37,-4.496 -1.957,-8.118 -4.76,-10.869c-2.803,-2.75 -6.346,-4.125 -10.63,-4.125Z" style="fill:#444;fill-rule:nonzero;"/><path d="M237.233,75.264c-3.014,0 -5.487,-1.217 -7.417,-3.649c-1.931,-2.433 -2.896,-5.58 -2.896,-9.441l0,-46.487c0,-0.74 0.225,-1.322 0.675,-1.745c0.449,-0.423 1.018,-0.635 1.705,-0.635c0.741,0 1.322,0.212 1.745,0.635c0.423,0.423 0.635,1.005 0.635,1.745l0,46.487c0,2.433 0.516,4.43 1.547,5.99c1.031,1.56 2.367,2.34 4.006,2.34l1.983,0c0.582,0 1.058,0.211 1.428,0.635c0.37,0.423 0.556,1.004 0.556,1.745c0,0.687 -0.212,1.256 -0.635,1.705c-0.423,0.45 -1.005,0.675 -1.745,0.675l-1.587,0Z" style="fill:#444;fill-rule:nonzero;"/><path d="M258.652,75.264c-3.015,0 -5.487,-1.217 -7.417,-3.649c-1.931,-2.433 -2.896,-5.58 -2.896,-9.441l0,-46.487c0,-0.74 0.225,-1.322 0.674,-1.745c0.45,-0.423 1.019,-0.635 1.706,-0.635c0.74,0 1.322,0.212 1.745,0.635c0.423,0.423 0.635,1.005 0.635,1.745l0,46.487c0,2.433 0.516,4.43 1.547,5.99c1.031,1.56 2.366,2.34 4.006,2.34l1.983,0c0.582,0 1.058,0.211 1.428,0.635c0.37,0.423 0.555,1.004 0.555,1.745c0,0.687 -0.211,1.256 -0.634,1.705c-0.423,0.45 -1.005,0.675 -1.745,0.675l-1.587,0Z" style="fill:#444;fill-rule:nonzero;"/></g><g><path d="M305.86,31.95c1.005,0.423 1.507,1.031 1.507,1.824c0,0.212 -0.105,0.582 -0.317,1.111l-26.655,57.752c-0.476,0.952 -1.084,1.428 -1.824,1.428c-0.317,0 -0.688,-0.08 -1.111,-0.238c-1.005,-0.423 -1.507,-1.032 -1.507,-1.825c0,-0.211 0.106,-0.582 0.317,-1.11l7.933,-17.136c-0.053,-0.052 -0.158,-0.238 -0.317,-0.555l-17.373,-38.078c-0.212,-0.423 -0.318,-0.846 -0.318,-1.269c0,-0.794 0.45,-1.402 1.349,-1.825c0.423,-0.211 0.846,-0.317 1.269,-0.317c0.794,0 1.402,0.449 1.825,1.348l16.104,35.223l16.183,-35.143c0.476,-0.952 1.084,-1.428 1.825,-1.428c0.37,0 0.74,0.079 1.11,0.238Z" style="fill:#00d9b4;fill-rule:nonzero;"/><path d="M332.76,75.74c-4.178,0 -7.959,-0.966 -11.344,-2.896c-3.385,-1.93 -6.042,-4.588 -7.973,-7.972c-1.93,-3.385 -2.895,-7.14 -2.895,-11.265c0,-4.178 0.965,-7.96 2.895,-11.344c1.931,-3.385 4.588,-6.043 7.973,-7.973c3.385,-1.93 7.166,-2.895 11.344,-2.895c4.125,0 7.88,0.965 11.265,2.895c3.384,1.93 6.042,4.588 7.972,7.973c1.931,3.384 2.896,7.166 2.896,11.344c0,4.125 -0.965,7.88 -2.896,11.265c-1.93,3.384 -4.588,6.042 -7.972,7.972c-3.385,1.93 -7.14,2.896 -11.265,2.896Zm0,-4.443c3.279,0 6.241,-0.767 8.885,-2.3c2.644,-1.534 4.72,-3.649 6.227,-6.347c1.508,-2.697 2.261,-5.711 2.261,-9.043c0,-3.332 -0.753,-6.347 -2.261,-9.044c-1.507,-2.697 -3.583,-4.826 -6.227,-6.386c-2.644,-1.56 -5.606,-2.34 -8.885,-2.34c-3.279,0 -6.241,0.78 -8.885,2.34c-2.644,1.56 -4.733,3.689 -6.267,6.386c-1.534,2.697 -2.3,5.712 -2.3,9.044c0,3.332 0.766,6.346 2.3,9.043c1.534,2.698 3.623,4.813 6.267,6.347c2.644,1.533 5.606,2.3 8.885,2.3Z" style="fill:#00d9b4;fill-rule:nonzero;"/><path d="M403.522,31.871c0.74,0 1.322,0.211 1.745,0.634c0.423,0.423 0.635,1.005 0.635,1.745l0,38.634c0,0.687 -0.212,1.256 -0.635,1.705c-0.423,0.45 -1.005,0.675 -1.745,0.675c-0.688,0 -1.256,-0.225 -1.706,-0.675c-0.449,-0.449 -0.674,-1.018 -0.674,-1.705l0,-4.125c-1.798,2.221 -3.993,3.953 -6.584,5.196c-2.592,1.243 -5.421,1.864 -8.489,1.864c-3.86,0 -7.311,-0.793 -10.352,-2.38c-3.041,-1.586 -5.421,-3.9 -7.14,-6.941c-1.719,-3.041 -2.578,-6.677 -2.578,-10.908l0,-21.34c0,-0.687 0.225,-1.256 0.674,-1.705c0.45,-0.45 1.018,-0.674 1.706,-0.674c0.687,0 1.256,0.224 1.705,0.674c0.45,0.449 0.675,1.018 0.675,1.705l0,21.34c0,5.024 1.414,8.858 4.244,11.503c2.829,2.644 6.518,3.966 11.066,3.966c2.803,0 5.355,-0.542 7.656,-1.626c2.3,-1.084 4.112,-2.591 5.434,-4.522c1.322,-1.93 1.983,-4.059 1.983,-6.386l0,-24.275c0,-0.74 0.225,-1.322 0.674,-1.745c0.45,-0.423 1.018,-0.634 1.706,-0.634Z" style="fill:#00d9b4;fill-rule:nonzero;"/></g></g><defs><radialGradient id="_Radial1" cx="0" cy="0" r="1" gradientUnits="userSpaceOnUse" gradientTransform="matrix(-29.8447,22.5325,-70.5832,-93.4886,-4.23227,13.6111)"><stop offset="0" style="stop-color:#01b7d6;stop-opacity:1"/><stop offset="0.11" style="stop-color:#00e6a7;stop-opacity:1"/><stop offset="1" style="stop-color:#01b7d6;stop-opacity:1"/></radialGradient><radialGradient id="_Radial2" cx="0" cy="0" r="1" gradientUnits="userSpaceOnUse" gradientTransform="matrix(-29.8447,13.5195,-70.5832,-56.0932,-4.23227,39.7879)"><stop offset="0" style="stop-color:#01b7d6;stop-opacity:1"/><stop offset="0.11" style="stop-color:#00e6a7;stop-opacity:1"/><stop offset="1" style="stop-color:#01b7d6;stop-opacity:1"/></radialGradient><radialGradient id="_Radial3" cx="0" cy="0" r="1" gradientUnits="userSpaceOnUse" gradientTransform="matrix(-29.8447,13.5195,-70.5832,-56.0932,14.4655,39.7879)"><stop offset="0" style="stop-color:#01b7d6;stop-opacity:1"/><stop offset="0.11" style="stop-color:#00e6a7;stop-opacity:1"/><stop offset="1" style="stop-color:#01b7d6;stop-opacity:1"/></radialGradient><radialGradient id="_Radial4" cx="0" cy="0" r="1" gradientUnits="userSpaceOnUse" gradientTransform="matrix(-29.8447,22.5325,-70.5832,-93.4886,14.4655,13.6111)"><stop offset="0" style="stop-color:#01b7d6;stop-opacity:1"/><stop offset="0.11" style="stop-color:#00e6a7;stop-opacity:1"/><stop offset="1" style="stop-color:#01b7d6;stop-opacity:1"/></radialGradient></defs></svg>